<svg xmlns="http://www.w3.org/2000/svg" width="23.999" height="24" viewBox="0 0 23.999 24">
  <path id="Soustraction_17" data-name="Soustraction 17" d="M9018-3943a11.927,11.927,0,0,1-8.486-3.514A11.924,11.924,0,0,1,9006-3955a11.925,11.925,0,0,1,3.514-8.485A11.926,11.926,0,0,1,9018-3967a11.923,11.923,0,0,1,8.484,3.515A11.921,11.921,0,0,1,9030-3955a11.92,11.92,0,0,1-3.515,8.486A11.921,11.921,0,0,1,9018-3943Zm-3.13-19.114a3.991,3.991,0,0,0-3.986,3.986v6.379a3.992,3.992,0,0,0,3.986,3.989h6.382a3.993,3.993,0,0,0,3.988-3.989v-6.379a3.992,3.992,0,0,0-3.988-3.986Zm3.19,11.164a3.991,3.991,0,0,1-3.986-3.986,3.992,3.992,0,0,1,3.986-3.989,3.994,3.994,0,0,1,3.989,3.989A3.993,3.993,0,0,1,9018.062-3950.951Zm0-6.379a2.394,2.394,0,0,0-2.391,2.393,2.394,2.394,0,0,0,2.391,2.393,2.4,2.4,0,0,0,2.394-2.393A2.4,2.4,0,0,0,9018.062-3957.33Zm4.787-1.6a.8.8,0,0,1-.8-.8.8.8,0,0,1,.8-.8.8.8,0,0,1,.795.8A.8.8,0,0,1,9022.849-3958.926Z" transform="translate(-9006.001 3967)"/>
</svg>
