<svg xmlns="http://www.w3.org/2000/svg" width="23.998" height="24.003" viewBox="0 0 23.998 24.003">
  <path id="Soustraction_16" data-name="Soustraction 16" d="M8196,15763a12,12,0,1,1,12-12A12.013,12.013,0,0,1,8196,15763Zm-.055-17.936a33.645,33.645,0,0,0-5.969.446,2.052,2.052,0,0,0-1.668,1.595,24.239,24.239,0,0,0-.3,3.894,20.075,20.075,0,0,0,.334,3.893,2.1,2.1,0,0,0,1.668,1.6,40.6,40.6,0,0,0,11.941,0,2.049,2.049,0,0,0,1.668-1.6,27.973,27.973,0,0,0,.373-3.893,25.334,25.334,0,0,0-.449-3.894,2.091,2.091,0,0,0-1.668-1.595A33.347,33.347,0,0,0,8195.943,15745.066Zm-2,8.528v-5.192l4.523,2.6-4.521,2.593Z" transform="translate(-8184.002 -15738.999)"/>
</svg>
